<svg xmlns="http://www.w3.org/2000/svg" xmlns:xlink="http://www.w3.org/1999/xlink">
	<symbol id="arrow" viewBox="0 0 19 11" fill="none">
		<path d="M1.15403 4.97451H15.9382L13.261 2.39156C13.2413 2.37123 13.2298 2.3448 13.2283 2.31696V1.10572C13.2293 1.06318 13.2559 1.02533 13.2962 1.00844C13.337 0.991549 13.3845 1.00047 13.4155 1.03112L17.9673 5.42665C17.9882 5.44636 18 5.47326 18 5.50125C18 5.5294 17.9882 5.5563 17.9673 5.57585L13.418 9.96899C13.3858 9.99948 13.338 10.0084 13.2964 9.99166C13.2553 9.97446 13.2286 9.93537 13.2286 9.8922V8.68316C13.2289 8.65516 13.2405 8.62826 13.2613 8.60856L15.9362 6.0256H1.1545C1.06915 6.0256 1 5.95882 1 5.87641V5.12385C1 5.08428 1.01636 5.04644 1.04535 5.01845C1.07417 4.99045 1.11353 4.97465 1.1545 4.97465L1.15403 4.97451Z" fill="#34A853" stroke="#34A853"/>
    </symbol>
    <symbol id="close" viewBox="0 0 23 23" fill="none">
        <path d="M1.69537 23C1.33907 23 0.982769 22.864 0.71085 22.5921C0.167021 22.0487 0.167021 21.1665 0.71085 20.6227L20.6227 0.710854C21.1666 0.167025 22.0475 0.167025 22.5921 0.710854C23.1359 1.25429 23.1359 2.13646 22.5921 2.68024L2.68024 22.5921C2.40793 22.8644 2.05167 23 1.69537 23Z" fill="currentColor"/>
        <path d="M21.6072 23C21.2509 23 20.8946 22.864 20.6227 22.5921L0.71085 2.68024C0.167021 2.1368 0.167021 1.25463 0.71085 0.710854C1.25468 0.167076 2.13566 0.167026 2.68024 0.710854L22.5911 20.6227C23.1349 21.1662 23.1349 22.0483 22.5911 22.5921C22.3192 22.8644 21.9629 23 21.6066 23H21.6072Z" fill="currentColor"/>
    </symbol>
    <symbol id="download" viewBox="0 0 18 17" fill="none">
        <path d="M11.9699 3.1623C11.7157 3.1623 11.5092 2.95644 11.5092 2.70206C11.5092 2.44812 11.7157 2.24182 11.9699 2.24182H13.5459C14.4736 2.24182 15.3165 2.62034 15.9273 3.23063C16.5381 3.84092 16.9175 4.68302 16.9175 5.60965V12.6171C16.9175 13.5439 16.5382 14.386 15.9273 14.9961C15.3164 15.6064 14.4735 15.9854 13.5459 15.9854H4.56491C3.63727 15.9854 2.79435 15.6065 2.18358 14.9961C1.5727 14.3858 1.19336 13.5437 1.19336 12.6171V5.60965C1.19336 4.6829 1.57267 3.8408 2.18358 3.23063C2.79447 2.62034 3.63738 2.24182 4.56491 2.24182H6.14095C6.39513 2.24182 6.60163 2.44768 6.60163 2.70206C6.60163 2.95644 6.39513 3.1623 6.14095 3.1623H4.56491C3.89145 3.1623 3.2791 3.43782 2.83487 3.88174C2.39051 4.32566 2.11473 4.93787 2.11473 5.6101V12.6176C2.11473 13.2904 2.39051 13.9021 2.83487 14.3459C3.27922 14.7899 3.89145 15.0654 4.56491 15.0654H13.5459C14.2194 15.0654 14.8317 14.7899 15.276 14.3459C15.7203 13.902 15.9961 13.2904 15.9961 12.6176V5.6101C15.9961 4.93775 15.7203 4.32554 15.276 3.88174C14.8316 3.43782 14.2194 3.1623 13.5459 3.1623H11.9699ZM8.59485 10.9429V1.46024C8.59485 1.2063 8.80136 1 9.05554 1C9.30972 1 9.51622 1.20586 9.51622 1.46024V10.9429L11.8254 8.41138C11.9963 8.22386 12.2871 8.20988 12.4748 8.38063C12.6625 8.55137 12.6765 8.84187 12.5055 9.02985C11.498 10.134 10.3418 11.3046 9.39525 12.4391C9.38563 12.4497 9.37556 12.4598 9.36492 12.4694C9.17722 12.6402 8.88644 12.6266 8.71553 12.4391L5.60524 9.02985C5.43433 8.84233 5.44831 8.55183 5.63602 8.38063C5.82372 8.20988 6.11449 8.22386 6.28541 8.41138L8.59456 10.9429H8.59485Z" fill="#151515" stroke="black" stroke-width="0.7"/>
    </symbol>
    <symbol id="settings" viewBox="0 0 25 25" fill="none">
        <path d="M14.1884 25H10.1282C9.41259 25 8.72612 24.7157 8.22009 24.2097C7.71406 23.7037 7.42975 23.0172 7.42975 22.3016C7.43229 22.1585 7.39619 22.0172 7.32526 21.8929C7.25412 21.7688 7.1509 21.666 7.02635 21.5955C6.77895 21.4431 6.46677 21.4431 6.21932 21.5955C5.59932 21.9607 4.85838 22.0607 4.16391 21.8728C3.47425 21.682 2.88613 21.2297 2.52477 20.612L0.494697 17.0939C0.137736 16.4749 0.0408469 15.7399 0.22534 15.0496C0.409627 14.3594 0.86031 13.7704 1.4782 13.412C1.60507 13.3431 1.71104 13.2412 1.78429 13.1166C1.85754 12.9923 1.89575 12.8502 1.89427 12.7059C1.89596 12.5646 1.85944 12.4255 1.78831 12.3033C1.71717 12.1813 1.61436 12.0806 1.49088 12.0124C0.869848 11.6536 0.416399 11.0634 0.229582 10.3707C0.0429765 9.67836 0.138178 8.94012 0.494713 8.31785L2.52478 4.79974C2.88617 4.18206 3.47427 3.72969 4.16392 3.53888C4.86288 3.36874 5.60063 3.4918 6.20669 3.87937C6.37282 3.98555 6.57188 4.02819 6.76693 3.99949C6.96219 3.97099 7.14035 3.87283 7.26912 3.72337C7.39789 3.57392 7.46818 3.38309 7.46755 3.18572C7.46417 2.46801 7.74704 1.77835 8.25345 1.26962C8.75987 0.760882 9.44823 0.474854 10.166 0.474854H14.2262C14.942 0.474854 15.6282 0.758985 16.1343 1.26519C16.6403 1.77118 16.9246 2.45742 16.9246 3.17329C16.9221 3.31641 16.9582 3.45742 17.0291 3.58176C17.1002 3.70609 17.2035 3.80889 17.3282 3.8794C17.5756 4.03181 17.8878 4.03181 18.1353 3.8794C18.755 3.514 19.496 3.41393 20.1905 3.60202C20.8801 3.79285 21.4682 4.24521 21.8296 4.86288L23.8597 8.381L23.8599 8.38079C24.2166 8.99971 24.3135 9.73498 24.1292 10.4252C23.9447 11.1153 23.4943 11.7043 22.8762 12.0629C22.7493 12.1315 22.6433 12.2337 22.5701 12.358C22.4968 12.4826 22.4588 12.6246 22.4601 12.769C22.4584 12.9102 22.4951 13.0494 22.5661 13.1714C22.6372 13.2936 22.74 13.3941 22.8637 13.4625C23.4845 13.8213 23.938 14.4115 24.1248 15.1039C24.3114 15.7965 24.2162 16.5347 23.8599 17.157L21.8298 20.6751L21.8296 20.6749C21.4682 21.2926 20.8801 21.745 20.1904 21.936C19.5002 22.1247 18.7628 22.0245 18.1477 21.6586C17.9815 21.5524 17.7827 21.5096 17.5874 21.5383C17.3922 21.567 17.214 21.665 17.0852 21.8144C16.9567 21.9639 16.8862 22.1549 16.8868 22.3521C16.8735 23.059 16.5835 23.7324 16.079 24.2276C15.5742 24.7229 14.8953 25.0002 14.1884 25ZM6.62277 19.5906C7.09668 19.5925 7.56194 19.7185 7.9721 19.9564C8.38331 20.191 8.72509 20.5304 8.96211 20.9403C9.19917 21.3501 9.32308 21.8155 9.32118 22.289C9.32118 22.5043 9.40583 22.7108 9.55677 22.8643C9.7077 23.0175 9.91309 23.1053 10.1282 23.1087H14.1884C14.4024 23.1087 14.6076 23.0236 14.759 22.8723C14.9104 22.7209 14.9954 22.5158 14.9954 22.3017C14.9927 21.8263 15.1162 21.3587 15.353 20.9467C15.5901 20.5346 15.9323 20.1929 16.3445 19.9565C16.7532 19.7145 17.2191 19.5868 17.6939 19.5868C18.1686 19.5868 18.6345 19.7145 19.043 19.9565C19.2283 20.0662 19.45 20.0973 19.6583 20.0428C19.8667 19.9883 20.0448 19.8528 20.1527 19.6664L22.2459 16.1483C22.355 15.9649 22.3858 15.7453 22.3312 15.5389C22.2767 15.3327 22.1414 15.1568 21.9558 15.0513C21.4051 14.7346 20.9838 14.2335 20.7661 13.6365C20.5484 13.0395 20.5485 12.3849 20.7661 11.7879C20.9837 11.1912 21.4051 10.6901 21.9558 10.3732C22.1422 10.2653 22.2778 10.0874 22.3322 9.87901C22.3867 9.67045 22.3557 9.44901 22.2459 9.26366L20.1527 5.74554C20.0446 5.55999 19.8681 5.42405 19.6608 5.36726C19.4554 5.31322 19.237 5.3451 19.0556 5.4555C18.2195 5.93531 17.1917 5.9351 16.356 5.45486C15.52 4.97463 15.002 4.08679 14.9955 3.12293C14.9955 2.90761 14.9108 2.70116 14.7599 2.54767C14.6089 2.39442 14.4035 2.3066 14.1885 2.30323H10.1283C9.91422 2.30323 9.70903 2.3883 9.55766 2.53965C9.40628 2.69101 9.32123 2.89619 9.32123 3.11026C9.32397 3.58565 9.20048 4.05321 8.96364 4.46526C8.72658 4.87732 8.38438 5.21907 7.97211 5.45549C7.56343 5.69741 7.09753 5.82511 6.62278 5.82511C6.14804 5.82511 5.68216 5.6974 5.27367 5.45549C5.08833 5.34573 4.86669 5.31469 4.65832 5.36915C4.44997 5.42361 4.27181 5.55913 4.16394 5.74553L2.13387 9.26365C2.02474 9.44708 1.99392 9.66662 2.04838 9.87305C2.10305 10.0793 2.23836 10.2551 2.42392 10.3607C2.97464 10.6773 3.39599 11.1785 3.61366 11.7754C3.8313 12.3724 3.8313 13.027 3.61366 13.624C3.39603 14.2208 2.97469 14.7219 2.42392 15.0388C2.23541 15.1445 2.09714 15.3216 2.04014 15.5302C1.98336 15.7388 2.01249 15.9615 2.1212 16.1483L4.15127 19.6664C4.25935 19.852 4.43604 19.9879 4.64312 20.0447C4.84852 20.0987 5.067 20.0669 5.24832 19.9565C5.66713 19.7177 6.14063 19.5917 6.62277 19.5906Z" fill="white"/>
        <path d="M12.1581 17.4344C10.904 17.4344 9.70142 16.9362 8.81462 16.0494C7.92782 15.1626 7.42963 13.96 7.42963 12.7059C7.42963 11.4518 7.92781 10.2492 8.81462 9.36241C9.70143 8.47561 10.904 7.97742 12.1581 7.97742C13.4122 7.97742 14.6148 8.4756 15.5016 9.36241C16.3884 10.2492 16.8866 11.4518 16.8866 12.7059C16.8866 13.96 16.3885 15.1626 15.5016 16.0494C14.6148 16.9362 13.4122 17.4344 12.1581 17.4344ZM12.1581 9.86882C11.4056 9.86882 10.6841 10.1677 10.1519 10.6997C9.61993 11.2319 9.32103 11.9534 9.32103 12.7059C9.32103 13.4585 9.61993 14.18 10.1519 14.7122C10.6841 15.2441 11.4056 15.543 12.1581 15.543C12.9107 15.543 13.6322 15.2441 14.1644 14.7122C14.6963 14.18 14.9952 13.4585 14.9952 12.7059C14.9952 11.9534 14.6963 11.2319 14.1644 10.6997C13.6322 10.1677 12.9107 9.86882 12.1581 9.86882Z" fill="white"/>
    </symbol>
    <symbol id="upload-icon" viewBox="0 0 24 22" fill="none">
        <path d="M11.8071 16.0752C11.9522 16.0752 12.0915 16.0176 12.194 15.9151C12.2967 15.8124 12.3543 15.6733 12.3543 15.5281V2.7783L16.4857 6.90976C16.7035 7.07313 17.0083 7.05136 17.2009 6.8588C17.3934 6.66623 17.4152 6.36143 17.2518 6.14368L12.1082 1H11.5062L6.36255 6.14368C6.23564 6.23872 6.15644 6.38434 6.14518 6.54255C6.13392 6.70077 6.19194 6.85612 6.30396 6.96833C6.41618 7.08055 6.57154 7.13838 6.72974 7.12712C6.88796 7.11586 7.03358 7.03665 7.12862 6.90974L11.2601 2.77829V15.528C11.2601 15.6733 11.3177 15.8124 11.4204 15.9151C11.5229 16.0176 11.6622 16.0752 11.8072 16.0752L11.8071 16.0752Z" fill="white" stroke="white"/>
        <path d="M22.6144 13.2571C22.6144 12.955 22.3695 12.71 22.0672 12.71C21.7649 12.71 21.5201 12.955 21.5201 13.2571V18.264C21.5201 18.6993 21.3472 19.1169 21.0391 19.4247C20.7313 19.7326 20.3137 19.9057 19.8784 19.9057H3.73599C3.30066 19.9057 2.88309 19.7326 2.57524 19.4247C2.26721 19.1169 2.0943 18.6993 2.0943 18.264V13.2571C2.0943 12.955 1.84944 12.71 1.54715 12.71C1.24486 12.71 1 12.955 1 13.2571V18.264C1 18.9896 1.28818 19.6856 1.80135 20.1986C2.31435 20.7118 3.01037 21 3.736 21H19.8784C20.604 21 21.3 20.7118 21.813 20.1986C22.3262 19.6856 22.6144 18.9896 22.6144 18.264L22.6144 13.2571Z" fill="white" stroke="white"/>
    </symbol>
    <symbol id="subtract" viewBox="0 0 15 13" fill="none">
        <path d="M0.939058 0C0.420391 0 0 0.525529 0 1.17391C0 1.8223 0.420391 2.34783 0.939058 2.34783H13.1479C13.6666 2.34783 14.087 1.8223 14.087 1.17391C14.087 0.525529 13.6666 0 13.1479 0H0.939058Z" fill="white"/>
    </symbol>
    <symbol id="add" viewBox="0 0 15 14" fill="none">
        <path d="M1.82216 6.34662C1.32855 6.34662 0.928467 6.74631 0.928467 7.23944C0.928467 7.73258 1.32855 8.13227 1.82216 8.13227H13.4412C13.9348 8.13227 14.3349 7.73258 14.3349 7.23944C14.3349 6.74631 13.9348 6.34662 13.4412 6.34662H1.82216Z" fill="white"/>
        <path d="M8.52563 1.43555C8.52563 0.942419 8.12555 0.542725 7.63194 0.542725C7.13833 0.542725 6.73825 0.942419 6.73825 1.43555L6.73825 13.0433C6.73825 13.5365 7.13833 13.9362 7.63194 13.9362C8.12555 13.9362 8.52563 13.5365 8.52563 13.0433L8.52563 1.43555Z" fill="white"/>
    </symbol>
    <symbol id="cancel" viewBox="0 0 14 14" fill="none">
        <path d="M13.3 0.70998C13.2075 0.617276 13.0976 0.543728 12.9766 0.493547C12.8557 0.443366 12.726 0.417535 12.595 0.417535C12.464 0.417535 12.3344 0.443366 12.2134 0.493547C12.0924 0.543728 11.9825 0.617276 11.89 0.70998L7.00001 5.58998L2.11001 0.699979C2.01743 0.607397 1.90752 0.533957 1.78655 0.483852C1.66559 0.433747 1.53594 0.407959 1.40501 0.407959C1.27408 0.407959 1.14443 0.433747 1.02347 0.483852C0.902502 0.533957 0.792592 0.607397 0.70001 0.699979C0.607428 0.792561 0.533988 0.902472 0.483883 1.02344C0.433778 1.1444 0.40799 1.27405 0.40799 1.40498C0.40799 1.53591 0.433778 1.66556 0.483883 1.78652C0.533988 1.90749 0.607428 2.0174 0.70001 2.10998L5.59001 6.99998L0.70001 11.89C0.607428 11.9826 0.533988 12.0925 0.483883 12.2134C0.433778 12.3344 0.40799 12.464 0.40799 12.595C0.40799 12.7259 0.433778 12.8556 0.483883 12.9765C0.533988 13.0975 0.607428 13.2074 0.70001 13.3C0.792592 13.3926 0.902502 13.466 1.02347 13.5161C1.14443 13.5662 1.27408 13.592 1.40501 13.592C1.53594 13.592 1.66559 13.5662 1.78655 13.5161C1.90752 13.466 2.01743 13.3926 2.11001 13.3L7.00001 8.40998L11.89 13.3C11.9826 13.3926 12.0925 13.466 12.2135 13.5161C12.3344 13.5662 12.4641 13.592 12.595 13.592C12.7259 13.592 12.8556 13.5662 12.9766 13.5161C13.0975 13.466 13.2074 13.3926 13.3 13.3C13.3926 13.2074 13.466 13.0975 13.5161 12.9765C13.5662 12.8556 13.592 12.7259 13.592 12.595C13.592 12.464 13.5662 12.3344 13.5161 12.2134C13.466 12.0925 13.3926 11.9826 13.3 11.89L8.41001 6.99998L13.3 2.10998C13.68 1.72998 13.68 1.08998 13.3 0.70998Z" fill="white"/>
    </symbol>
    <symbol id="zoom" viewBox="0 0 12 12" fill="none">
        <path d="M5.03525 1.16873C4.02854 1.16873 3.06305 1.56862 2.35127 2.2805C1.63939 2.99237 1.23943 3.95794 1.23943 4.96472C1.23943 5.97142 1.63939 6.93692 2.35127 7.6487C3.06314 8.36057 4.02861 8.76054 5.03525 8.76054C6.04205 8.76054 7.00754 8.36057 7.71947 7.6487C8.43135 6.93682 8.83124 5.97135 8.83124 4.96472C8.83124 3.95801 8.43135 2.99242 7.71947 2.2805C7.00759 1.56862 6.04212 1.16873 5.03525 1.16873ZM5.03525 0.000752056C6.18094 0.00122607 7.29128 0.397779 8.17817 1.12322C9.06486 1.84867 9.67359 2.85831 9.90112 3.98122C10.1286 5.10412 9.96103 6.2711 9.42652 7.28456C8.89211 8.29791 8.02371 9.09539 6.96874 9.54183C5.75516 10.0546 4.38766 10.0643 3.16714 9.56884C1.94645 9.07331 0.97263 8.11322 0.459861 6.89967C-0.0528354 5.68619 -0.0625912 4.31859 0.432937 3.09807C0.928377 1.87738 1.88856 0.903566 3.10211 0.390797C3.71378 0.131791 4.37144 -0.00110943 5.03563 6.97556e-06L5.03525 0.000752056Z" fill="currentColor"/>
        <path d="M4.64703 3V4.64703H3V5.35297H4.64703V7H5.35297V5.35297H7V4.64703H5.35297V3H4.64703Z" fill="currentColor"/>
        <path d="M12 11.3286L8.16628 7.49487L7.49487 8.16628L11.3286 12L12 11.3286Z" fill="currentColor"/>
    </symbol>
</svg>